<svg xmlns="http://www.w3.org/2000/svg" width="256" height="256"><path fill="#1976D2" fill-opacity=".016" fill-rule="evenodd" d="M0 128.004v128.004l128.25-.254 128.25-.254.254-127.75L257.008 0H0zm.485.496c0 70.4.119 99.053.265 63.672s.146-92.98 0-128S.485 58.1.485 128.5"/><path fill="#1976D2" fill-opacity=".35" fill-rule="evenodd" d="M105.3 1.1c-.747.747-4.072 1.115-9.003.996-10.6-.256-33.671 3.082-34.885 5.047-.292.471-1.664.857-3.05.857-6.816 0-27.405 11.409-28.86 15.992-.346 1.093-.767 4.804-.934 8.247-.167 3.444-1.041 8.423-1.942 11.065-1.205 3.533-1.363 5.318-.597 6.75.649 1.213.699 2.605.131 3.696-1.092 2.101-3.158 13.74-3.165 17.832-.003 1.859-1.091 4.078-3 6.114C17.024 80.866 17 80.986 17 92.481c0 8.912.368 12.15 1.591 14.017 1.248 1.905 1.453 3.893.953 9.215-.351 3.733-.188 12.635.363 19.784.634 8.24.651 13.345.046 13.95-.524.524-.953 1.763-.953 2.753s-.505 1.8-1.122 1.8c-.785 0-.811.376-.086 1.25.571.688 1.336 3.275 1.702 5.75 1.91 12.929 3.153 16.406 6.83 19.105.79.579 1.879 4.634 3.399 12.651.39 2.059.563 5.544.385 7.744-.649 8.016-.433 10.153 1.876 18.5 3.605 13.036 6.849 16.907 19.016 22.695 6.479 3.082 24.728 9.003 30 9.734 2.475.344 8.1 1.23 12.5 1.971 12.304 2.07 40.551 2.612 57 1.093 29.858-2.758 41.8-5.418 57.5-12.811 6.557-3.088 15.965-10.489 17.211-13.542 2.512-6.148 4.521-23.553 2.939-25.459-.734-.885-.788-2.436-.164-4.747.509-1.889 1.166-4.559 1.46-5.934.293-1.375.832-3.85 1.198-5.5s1.667-4.35 2.891-6c2.241-3.02 2.517-4.051 4.611-17.202.961-6.04.909-7.573-.326-9.5-1.2-1.873-1.441-6.481-1.298-24.898.096-12.43.569-23.23 1.05-24s.745-5.675.584-10.9c-.248-8.085-.647-10.021-2.68-13-1.536-2.25-2.788-6.178-3.506-11-.614-4.125-1.561-9.225-2.104-11.333s-1.129-9.758-1.301-17c-.33-13.862-1.539-19.206-4.559-20.165-1.005-.319-2.539-1.667-3.409-2.994-1.892-2.888-9.337-7.426-13.276-8.092-1.551-.262-4.621-1.204-6.821-2.094-5.459-2.207-11.518-3.36-21-3.996-4.4-.295-8.562-.994-9.25-1.554-1.24-1.009-14.026-1.68-46.757-2.455-12.247-.29-17.339-.071-18.193.783M42 29.5c1.359 1.637 4 2.038 4 .607C46 29.186 43.633 28 41.796 28c-.63 0-.55.592.204 1.5m-6.131 2.768c3.665 4.044 19.779 11.208 17.721 7.878-.389-.63-1.361-1.146-2.16-1.146-2.103 0-10.358-3.909-14.43-6.833l-3.5-2.513zm16.996 2.177c1.85.855 4.325 1.509 5.5 1.453 1.612-.078 1.4-.304-.865-.924-7.243-1.985-7.963-2.067-4.635-.529m11.385 3.244c.963.252 2.537.252 3.5 0 .963-.251.175-.457-1.75-.457s-2.712.206-1.75.457m14.5 2.034c1.787.222 4.713.222 6.5 0 1.787-.221.325-.403-3.25-.403s-5.037.182-3.25.403m28.835 1.14c-.991 1.603.575 1.902 5.915 1.128 4.471-.647 4.612-.738 1.332-.857-2.018-.074-4.335-.39-5.149-.702-.814-.313-1.759-.119-2.098.431m-47.772 1.82c.721.289 1.584.253 1.916-.079s-.258-.568-1.312-.525c-1.165.048-1.402.285-.604.604m5.628 1.794c1.068.838 3.205 1.523 4.75 1.523S73 46.45 73 47s-.873 1-1.941 1c-2.148 0-3.372 1.468-3.751 4.5-.137 1.1-.458 3.454-.713 5.232-.255 1.777-.091 3.461.364 3.742s5.495 1.262 11.201 2.18l10.375 1.669 6.653-2.661c3.659-1.464 7.626-2.662 8.816-2.662 2.68 0 2.17-2.082-.887-3.619l-2.225-1.119 2.304-.618c1.267-.339 3.429-.675 4.804-.745 3.065-.158-3.555-1.742-9.224-2.207-5.876-.483-5.667-1.685.307-1.762 8.44-.11 10.816-1.775 2.653-1.86-3.72-.038-7.716-.632-8.88-1.32-1.743-1.029-2.208-.996-2.632.186-.283.789-2.324 3.264-4.537 5.498-4.598 4.645-6.05 3.542-2.735-2.077 1.171-1.985 1.986-3.753 1.81-3.929-.282-.281-3.115-.751-17.762-2.948-3.283-.493-3.379-.431-1.559.997M74.5 49c.34.55.816 1 1.059 1s.441-.45.441-1-.477-1-1.059-1-.781.45-.441 1m35.607-.56c.749.749 10.83.957 11.548.238.373-.373-2.172-.678-5.655-.678s-6.135.198-5.893.44M110 65c0 .55.927 1 2.059 1s1.781-.45 1.441-1-1.266-1-2.059-1-1.441.45-1.441 1M69.75 87.39c-.412 2.689-.75 6.851-.75 9.25 0 4.201.112 4.36 3.073 4.36 2.398 0 2.995-.385 2.714-1.75-.202-.985-1.09-1.626-2.031-1.466-1.422.242-1.714-.873-1.963-7.5-.285-7.568-.314-7.648-1.043-2.894m10.766.86c-.632 1.876-.765 3.766-.634 9 .195 7.818 1.818 5.363 1.818-2.75 0-7.258-.304-8.862-1.184-6.25M62.2 95c-.182 3.018.116 5 .75 5 .593 0 1.05-2.173 1.05-5 0-6.495-1.41-6.494-1.8 0M29 94.42c0 .806 10.073 5.579 11.732 5.558.972-.012-.257-.953-2.732-2.092-6.004-2.762-9-3.916-9-3.466m22 9.94c0 .902-.788 1.676-1.75 1.719-1.031.046-1.24.285-.509.58.683.276 2.768-.002 4.634-.618 2.773-.915 4.039-.811 6.931.568 6.049 2.885 6.06 9.856.017 10.99-6.39 1.199-1.946 2.409 19.677 5.356 10.234 1.395 24.141 1.786 23.002.647-.545-.545-.513-1.648.08-2.755.544-1.016.678-1.847.298-1.847-.379 0 .114-.889 1.097-1.975 1.732-1.913 1.704-2.006-.91-3-1.484-.564-4.693-1.025-7.132-1.025-3.276 0-4.435-.392-4.435-1.5 0-1.264 2.396-1.512 15.25-1.579 21.303-.11 15.316-1.498-12.487-2.895-12.506-.628-25.106-1.564-28-2.079C54.348 102.737 51 102.613 51 104.36M68.5 109c-.34.55-.141 1 .441 1S70 109.55 70 109s-.198-1-.441-1-.719.45-1.059 1m69.5 1c-1.293.835-1.266.971.191.985.93.008 1.969-.435 2.309-.985.782-1.266-.542-1.266-2.5 0m-98.5 12c.34.55 1.041 1 1.559 1s.941-.45.941-1-.702-1-1.559-1-1.281.45-.941 1m3.5.941c0 .518.351 1.158.779 1.423.741.458.794 13.608.066 16.511-.19.756.218 1.581.905 1.833.862.316 1.252-.732 1.257-3.375.004-2.108.294-6.87.645-10.583.607-6.433.537-6.75-1.507-6.75-1.18 0-2.145.423-2.145.941m14.75 3.765c1.237.238 2.25.852 2.25 1.364 0 .511.675.93 1.5.93s1.5-.402 1.5-.893c0-1.174-2.617-2.141-5.332-1.971-2.135.134-2.134.143.082.57m16.329 3.877c.048 1.165.285 1.402.604.605.289-.722.253-1.585-.079-1.917s-.568.258-.525 1.312M82 132c0 .55.423 1 .941 1s1.219-.45 1.559-1-.084-1-.941-1-1.559.45-1.559 1m4.5 0c.34.55 1.041 1 1.559 1s.941-.45.941-1-.702-1-1.559-1-1.281.45-.941 1M23 157.923c0 2.262 4.959 7.487 9.174 9.667 4.976 2.573 5.468.976.582-1.887-2.52-1.477-5.558-4.264-6.751-6.194-2.478-4.01-3.005-4.288-3.005-1.586M39 170c0 .55.702 1 1.559 1s1.281-.45.941-1-1.041-1-1.559-1-.941.45-.941 1m4.5 2c.34.55 1.604.968 2.809.93 2.112-.068 2.119-.101.191-.93-2.752-1.183-3.731-1.183-3 0m8.25 2.662c.688.278 1.813.278 2.5 0 .688-.277.125-.504-1.25-.504s-1.937.227-1.25.504m6.063 2.021c.721.289 1.584.253 1.916-.079s-.258-.568-1.312-.525c-1.165.048-1.402.285-.604.604M64 178.827c0 1.313 12.071 3.185 19.615 3.043l6.885-.129-7.5-.864c-4.125-.476-8.805-1.317-10.399-1.871-3.505-1.216-8.601-1.322-8.601-.179m12.5 13.686c.55.241 4.273.819 8.274 1.285 5.078.591 7.166.523 6.917-.226-.206-.617-3.716-1.162-8.274-1.284-4.354-.117-7.467-.016-6.917.225M35.638 214.5c.317.825.964 1.5 1.438 1.5.473 0 .602-.675.286-1.5-.317-.825-.964-1.5-1.438-1.5-.473 0-.602.675-.286 1.5m6.876 4.522c.81 1.311 10.542 6.256 11.138 5.659.566-.565-5.224-4.188-8.97-5.612-1.828-.695-2.579-.711-2.168-.047M55 225.254c.485.534 12.791 4.746 13.865 4.746 1.8 0-2.022-2.048-5.365-2.875-2.2-.544-5.125-1.311-6.5-1.705-1.375-.393-2.275-.468-2-.166m18 5.935c7.645 3.249 18.135 4.872 34 5.263 15.75.387 15.977.366 5-.46-13.369-1.006-22.703-2.283-32.5-4.446-8.013-1.77-10.094-1.884-6.5-.357m54.75 5.517c1.238.238 3.262.238 4.5 0 1.238-.239.225-.434-2.25-.434s-3.487.195-2.25.434m20.063-.023c.721.289 1.584.253 1.916-.079s-.258-.568-1.312-.525c-1.165.048-1.402.285-.604.604m-68.47 9.063c.329.533 2.749 1.26 5.378 1.616s6.579.991 8.779 1.41 5.8.514 8 .212c3.514-.483 2.906-.703-5-1.807-16.796-2.346-17.773-2.427-17.157-1.431"/><path fill="#1976D2" fill-opacity=".264" fill-rule="evenodd" d="M108.182 1.218c-.789.789-6.836 1.469-17.151 1.93-15.036.671-27.283 2.704-29.472 4.893-.527.527-1.92.959-3.094.959-4.787 0-15.224 4.429-21.586 9.159C29.831 23.4 29.045 24.781 28.998 32c-.016 2.475-.661 7.185-1.433 10.467q-1.403 5.966-.449 7.75c.592 1.105.601 2.448.026 3.533-.511.962-1.457 5.35-2.103 9.75-1.717 11.691-1.725 11.717-5.016 15.196C17.049 81.84 17 82.064 17 92.517c0 8.112.355 10.981 1.5 12.126 1.169 1.169 1.512 4.296 1.554 14.178.03 6.974.427 16.238.883 20.588.641 6.116.502 8.689-.612 11.355-1.275 3.052-1.237 4.607.327 13.546 1.396 7.972 2.329 10.74 4.435 13.144 1.698 1.94 3.101 5.224 3.862 9.046.658 3.3 1.664 7.623 2.236 9.606.74 2.565.719 4.205-.073 5.684-1.35 2.523-1.454 8.593-.189 10.974.508.955 1.664 4.575 2.568 8.044 2.235 8.57 4.772 12.515 10.319 16.046 9.442 6.011 18.927 9.411 39.19 14.05 15.275 3.497 38.637 4.659 62 3.085 38.557-2.599 62.81-9.485 75.193-21.349 4.169-3.995 4.541-4.815 6.751-14.885 2.018-9.194 2.162-11.085 1.052-13.765-1.038-2.505-1.047-4.212-.046-8.799.682-3.13 1.648-6.725 2.145-7.988s.905-3.106.905-4.095.83-2.549 1.844-3.467 2.38-4.25 3.035-7.405 1.651-7.536 2.213-9.736c.818-3.202.685-4.798-.667-8-1.419-3.361-1.677-7.468-1.617-25.704.041-12.28.503-22.508 1.063-23.556.584-1.09.754-5.943.414-11.796-.486-8.342-.943-10.381-2.838-12.659-1.243-1.494-2.501-4.419-2.796-6.5s-1.062-7.61-1.704-12.285-1.56-9.782-2.04-11.349c-.521-1.701-.488-3.565.081-4.628.604-1.128.6-4.844-.01-10.151-.53-4.605-.966-8.947-.97-9.65-.01-1.641-10.22-11.197-14.349-13.43-1.738-.94-4.284-1.734-5.659-1.765-2.527-.058-8.508-1.906-10.68-3.301-1.854-1.19-20.938-3.81-22.733-3.121-.887.34-2.266.077-3.064-.586-.93-.771-7.232-1.405-17.521-1.762-8.839-.307-16.306-.94-16.595-1.408-.858-1.388-26.807-1.049-28.225.369m-2.005 5.342c.273 1.319 2.571 1.584 14.824 1.713 7.976.084 15.063-.195 15.75-.619C140.122 5.57 136.937 5 121.927 5c-14.035 0-16.033.198-15.75 1.56m36.067-.967c-2.614 1.202.084 2.41 5.565 2.491 3.13.047 8.309.411 11.509.811 4.049.505 6.33.352 7.499-.503.924-.676 1.436-1.472 1.138-1.77-.78-.781-24.213-1.718-25.711-1.029M83.5 6.981c-1.65.43-5.025.87-7.5.978s-6.3.741-8.5 1.409l-4 1.215 3.061 1.538c1.859.933 3.823 1.239 5 .779 1.067-.418 3.203-.791 4.748-.83 1.86-.046 2.568-.461 2.095-1.226-.517-.835.23-.964 2.691-.464 4.373.889 21.064-1.4 20.593-2.824-.418-1.266-13.904-1.692-18.188-.575M171 9.283c0 1.027 1.529 1.358 5.999 1.298 8.015-.108 8.215-1.999.251-2.379-4.788-.228-6.25.025-6.25 1.081m15.531 1.666c-.323.523 1.04 1.255 3.028 1.628 2.684.504 4.034.259 5.242-.949 1.503-1.504 1.272-1.628-3.028-1.628-2.56 0-4.919.427-5.242.949M55 12.802c0 .578.563 1.244 1.25 1.479s.162.241-1.167.012C52.346 13.823 44 16.026 44 17.218c0 .43 1.125.782 2.5.782 1.556 0 2.5.567 2.5 1.5 0 1.923.276 1.897 5.236-.5 2.277-1.1 5.405-2 6.952-2 3.042 0 3.603-1.098 1.467-2.872C60.707 12.512 55 11.523 55 12.802m143 1.108c0 .627 1.238 1.588 2.75 2.135 1.512.548 3.65 1.392 4.75 1.876 1.884.828 9.5 1.268 9.5.548 0-.183-1.243-1.218-2.761-2.299C209.003 13.866 198 12.119 198 13.91M49 17c0 1.27 3.035 1.27 5 0 1.138-.736.716-.973-1.75-.985-1.788-.008-3.25.435-3.25.985m-12.75 5.086C33.913 24.321 32 27.061 32 28.174c0 2.586 5.109 7.37 10.485 9.819C50.223 41.518 57.061 44 59.037 44c1.08 0 1.963.45 1.963 1s-1.35 1-3 1c-2.653 0-3 .34-3 2.941 0 1.618-.489 3.243-1.087 3.613-.598.369-.862 1.534-.586 2.588.446 1.707.1 1.848-3.163 1.292-4.661-.793-10.293-2.579-11.938-3.785-.701-.514-1.558-.65-1.905-.304-1.965 1.966 27.159 10.748 41.987 12.662 9.359 1.208 10.115 1.162 16.5-1.009l6.692-2.276 4.914 3.321 4.914 3.32 8.989-1.135c9.043-1.141 13.984-3.15 8.133-3.307-1.643-.044-2.285-.332-1.45-.65.825-.314 1.847-1.066 2.271-1.671 1.163-1.658-.216-7.839-2.047-9.178-1.393-1.019-1.213-1.254 1.333-1.741 1.618-.31 6.879-.855 11.689-1.212 14.093-1.044 11.353-2.461-4.937-2.552-8.145-.046-15.934-.227-17.309-.403-2.128-.272-25.017-.723-28.75-.566-.688.028-1.197.389-1.132.802.327 2.07-.268 3.25-1.637 3.25-1.121 0-1.355-.655-.892-2.5.345-1.375.242-2.503-.231-2.506-.472-.003-3.558-.471-6.858-1.041-3.3-.569-7.688-1.226-9.752-1.46-2.063-.233-4.621-.89-5.684-1.459S59.962 40 58.533 40c-7.724 0-26.513-10.42-23.757-13.176.779-.779 2.153-.204 4.882 2.046 5.344 4.404 9.732 4.182 6.767-.344-.809-1.234-1.177-3.009-.818-3.945.464-1.209.029-1.863-1.505-2.265-1.564-.409-1.994-1.08-1.563-2.44.99-3.118-1.709-2.17-6.289 2.21m178.017.047c-.624.624-2.176 1.241-3.45 1.373-3.727.384-3.817.429-3.817 1.879 0 .762-1.139 2.132-2.532 3.044-3.734 2.447-2.02 3.788 2.32 1.814C211.237 28.22 218 23.197 218 21.916c0-1.282-2.372-1.144-3.733.217M221 26.441c0 .793.45 1.719 1 2.059s1-.309 1-1.441S222.55 25 222 25s-1 .648-1 1.441m-26 5.093c-.825.159-5.408.847-10.185 1.529-9.663 1.379-11.907 2.245-10.209 3.943 1.307 1.307 23.493-2.919 23.524-4.481.023-1.106-.947-1.412-3.13-.991M48.739 33.186c.678.816 3.151 2.061 5.497 2.765s5.448 1.711 6.895 2.237c3.151 1.145 9.369.708 9.369-.659 0-.826-8.759-3.13-19.997-5.26-2.567-.487-2.82-.356-1.764.917M222 36.5c0 2.475.45 4.5 1 4.5s1-2.025 1-4.5-.45-4.5-1-4.5-1 2.025-1 4.5m-55.259-.908c-.667.668-1.938.823-16.047 1.96-6.551.528-7.752.896-7.469 2.289.289 1.423 1.681 1.629 9.806 1.447 10.047-.226 17.469-2.084 17.469-4.375 0-1.483-2.661-2.418-3.759-1.321M73 38.277c0 2.088 1.216 2.371 16.237 3.788 9.575.903 13.08.916 14.118.056 1.056-.877 1.673-.793 2.628.358 1.017 1.226 3.395 1.43 12.882 1.101 6.399-.222 13.579-.443 15.955-.492 3.804-.077 4.281-.339 4-2.193-.311-2.044-.773-2.101-15.817-1.953-8.524.084-15.92.575-16.437 1.092-.585.585-1.552.383-2.568-.536-1.197-1.083-5.52-1.651-16.314-2.141-13.027-.592-14.684-.488-14.684.92m120 2.774c-3.575 1.008-8.898 2.141-11.829 2.516-3.163.406-5.551 1.26-5.874 2.101-.744 1.94.376 2.848 1.929 1.564.701-.579 3.074-1.365 5.274-1.745 5.89-1.02 14.219-3.459 17.301-5.067 3.541-1.847 1.219-1.632-6.801.631m16.192 1.94c-1.908 1.59-2.119 2.278-1.215 3.966 1.263 2.36 2.516 2.769 1.661.543-.356-.93.005-1.5.952-1.5.841 0 1.25.45.91 1-1.435 2.322 3.605.77 5.148-1.585 1.442-2.201 1.483-2.719.273-3.485-2.258-1.429-5.232-1.021-7.729 1.061m13.895.847c-.687 1.283-1.052 2.531-.811 2.772.786.785 2.925-2.506 2.486-3.824-.27-.81-.885-.424-1.675 1.052M154 47c-1.897 1.226 4.676 1.262 10.5.057 3.751-.776 3.596-.833-2.5-.927-3.575-.055-7.175.337-8 .87M31 49.409c0 .19.675.906 1.5 1.591.865.718 1.5.815 1.5.229 0-.558-.675-1.274-1.5-1.591s-1.5-.419-1.5-.229m.592 9.341c-.353.962-1.309 2.943-2.124 4.401s-1.931 5.017-2.479 7.909c-1.869 9.854-2.96 12.888-4.431 12.324-2.272-.872-.663 7.687 1.853 9.862C27.781 96.158 37.738 101 40.357 101c1.327 0 3.928.64 5.778 1.422l3.365 1.423-2.815 1.077c-1.548.593-4.109 1.078-5.691 1.078-3.492 0-4.685 1.513-2.265 2.871 1.692.95 1.691 1.025-.017 1.683-2.489.959-10.035-2.119-13.789-5.626-3.396-3.172-3.923-3.436-3.923-1.962 0 4.121 16.576 12.966 30.002 16.008 22.763 5.158 30.549 6.114 54.748 6.724 21.449.54 23.25.454 23.25-1.115 0-.936-.461-1.416-1.024-1.068-2.08 1.286-6.754-.573-7.191-2.859-.626-3.273.109-4.644 2.548-4.754 1.267-.058.43-.577-2.013-1.25-2.3-.634-4.457-1.434-4.795-1.78-.533-.545 17.183-2.306 19.218-1.911.416.081.671 1.258.566 2.616-.216 2.777 1.101 2.39 3.91-1.149.946-1.191 3.156-2.453 4.91-2.804s3.006-.817 2.781-1.035c-.226-.218-10.219-.688-22.208-1.043-11.99-.355-22.478-.907-23.308-1.225-.99-.38-1.244-1.136-.737-2.2.424-.892.932-8.226 1.128-16.298.334-13.728.231-14.744-1.594-15.721-2.813-1.505-19.435-3.016-20.869-1.896-.745.582-2.227.377-4.031-.556-2.035-1.052-3.366-1.187-4.644-.472-1.327.742-2.27.568-3.641-.673C65.395 66.143 58 65.221 58 67.258c0 .836-.871 2.583-1.936 3.881L54.128 73.5l.824-3.72c1.028-4.642.032-5.584-7.109-6.725-2.939-.469-5.402-.786-5.475-.704-1.56 1.762-4.446 11.022-5.345 17.149-.646 4.4-1.406 8.981-1.689 10.18-.405 1.713.32 2.708 3.379 4.639 2.143 1.352 4.771 2.682 5.841 2.954 1.732.441 1.703.508-.267.611C38.942 98.164 25 90.621 25 87.449c0-2.158 1.367-1.762 3.878 1.125 3.508 4.035 4.846 1.92 4.96-7.839.053-4.529.869-11.106 1.813-14.614 1.656-6.156 1.65-6.428-.159-7.75-2.455-1.795-3.127-1.73-3.9.379m12.156 7.79c-.307 1.602-.073 2.404.633 2.171 1.388-.456 2.115-4.711.805-4.711-.524 0-1.171 1.143-1.438 2.54m23.925 12.237c-2.288 9.913-2.766 24.723-.798 24.723 1.093 0 1.339-2.251 1.203-11-.123-7.81.282-12.285 1.394-15.431.862-2.436 1.21-4.787.775-5.222-.436-.436-1.594 2.683-2.574 6.93M107.529 73c-.982 1.735-1.588 15.448-.996 22.553.735 8.828 1.852 10.509 3.617 5.447 1.262-3.619 2.85-3.931 2.85-.559 0 3.501 1.663 4.04 2.474.802.379-1.509 1.541-3.538 2.584-4.51 1.821-1.698 1.915-1.678 2.389.5a57 57 0 0 1 .773 4.767c.185 1.648.876 2.472 2.03 2.417.963-.046 5.125-.159 9.25-.25L140 104v-3.333c0-2.297-.467-3.334-1.5-3.334-.905 0-1.5.926-1.5 2.334 0 1.283-.414 2.333-.92 2.333-.507 0-1.192-3.037-1.524-6.75-.977-10.949-1.99-16.352-3.056-16.313-.55.021-1.047.85-1.103 1.842s-.62 2.769-1.25 3.947c-.631 1.178-1.147 3.372-1.147 4.875 0 5.262-1.253 1.422-1.563-4.789-.171-3.448-.79-6.43-1.374-6.624-.585-.195-1.063-1.04-1.063-1.878 0-.929.573-1.304 1.468-.961 1.588.61 3.164-1.05 2.053-2.161-.775-.775-19.56-.951-19.992-.188m24.917.087c-.369.598-.152 1.607.483 2.242.872.872 1.372.802 2.047-.29.953-1.542.472-3.039-.976-3.039-.485 0-1.184.489-1.554 1.087M116 77c0 .55.45 1 1 1s1-.45 1-1-.45-1-1-1-1 .45-1 1m112.171 10.569c-4.57 3.53-20.726 10.221-31.35 12.983-9.699 2.522-33.511 6.446-39.221 6.463-5.961.018-9.229 1.423-6.102 2.623 1.97.756 26.259-1.928 34.502-3.812 9.38-2.144 11.626-2.697 16-3.936 11.369-3.22 30.283-12.58 31.423-15.549.966-2.518-.996-2.059-5.252 1.228M148.07 88.75c-.038 2.338.103 4.25.313 4.25.849 0 1.222-4.762.514-6.569-.535-1.366-.777-.688-.827 2.319m-8.53-.622c-.363.895-.244 3.145.266 5 .908 3.306.939 3.323 1.612.848.847-3.118-.846-8.392-1.878-5.848M128 99.378c0 1.664.548 2.622 1.5 2.622.825 0 1.5-.62 1.5-1.378s-.675-1.937-1.5-2.622c-1.268-1.053-1.5-.84-1.5 1.378M51 100c.825.533 2.625.969 4 .969 1.979 0 2.187-.202 1-.969-.825-.533-2.625-.969-4-.969-1.979 0-2.187.202-1 .969m25.639-.306c-1.236 1.236-.622 4.306.861 4.306.825 0 1.5-.873 1.5-1.941 0-2.087-1.318-3.408-2.361-2.365m141.611-.032c-1.935.781-1.475 2.338.691 2.338 1.068 0 2.219.45 2.559 1 1.169 1.891 2.618 1.089 1.57-.869-.55-1.027-.715-2.152-.368-2.5.734-.734-2.613-.711-4.452.031M48 111c0 .55.423 1 .941 1s1.219-.45 1.559-1-.084-1-.941-1-1.559.45-1.559 1m-6.25.662c.688.278 1.813.278 2.5 0 .688-.277.125-.504-1.25-.504s-1.937.227-1.25.504m-18.786 3.088c-1.164 12.693.97 32.885 3.968 37.564 1.124 1.752 2.543 4.424 3.153 5.936 1.264 3.129 3.915 3.709 3.915.856 0-1.042-.42-6.329-.933-11.75s-1.179-13.732-1.479-18.47c-.632-9.965-1.105-11.598-3.588-12.386-.998-.317-2.068-1.234-2.376-2.038-.775-2.019-2.465-1.836-2.66.288m13.593 7.473c-2.133 3.044-2.055 17.064.175 31.527 1.23 7.98 2.13 11.25 3.097 11.25.749 0 2.557.613 4.017 1.361 3.984 2.044 9.26 3.831 12.913 4.375 1.793.267 3.507.885 3.809 1.374s1.42.89 2.484.89c1.854 0 1.908-.614 1.291-14.851-.415-9.594-.265-15.933.422-17.906.944-2.707.833-3.115-.98-3.589-1.533-.401-1.849-.988-1.262-2.344.43-.996.985-3.252 1.234-5.015.403-2.859.144-3.273-2.403-3.84-1.57-.349-4.308-1.076-6.084-1.616-1.777-.54-3.623-.739-4.103-.442-.479.296-2.608-.347-4.731-1.429-5.028-2.564-7.958-2.488-9.879.255m97.082 1.471c-1.126 1.126-.685 2.306.861 2.306.825 0 1.5-.423 1.5-.941 0-1.261-1.562-2.164-2.361-1.365m-65.889 3.885c-1.009 1.015-.927 6.594.122 8.248.491.775.236 3.062-.614 5.5-1.497 4.293-1.438 5.607 1.019 22.673l1.223 8.5 6 1.242c3.3.683 6.787 1.062 7.75.843s1.75.01 1.75.509c0 .498.43.906.955.906s1.229-1.687 1.565-3.75c1.244-7.632 2.164-8.102 2.941-1.5.674 5.728.936 6.25 3.137 6.25 2.29 0 3.248-1.36 1.652-2.345-.412-.255-.594-2.757-.403-5.559.301-4.437.624-5.098 2.5-5.111 4.549-.033 4.721-.717 4.429-17.56L101.5 130.5l-6.25-.689a435 435 0 0 0-13-1.188c-3.712-.274-8.325-.791-10.25-1.148-1.925-.358-3.838-.311-4.25.104m38.596 16.339c.359 7.104.971 13.742 1.36 14.75 1.356 3.519 2.132-4.628 1.555-16.342-.452-9.172-.845-11.326-2.064-11.326-1.296 0-1.414 1.792-.851 12.918m9.654-4.477c0 6.94 1.005 9.978 2.501 7.557.352-.569.735-3.614.851-6.766s.561-6.294.989-6.982c.545-.877.013-1.25-1.782-1.25-2.516 0-2.559.125-2.559 7.441m8.117-5.659c-.552 1.031-.61 3.242-.138 5.25.681 2.894.833 3.045.919.909.056-1.407.763-3.432 1.57-4.5 1.881-2.486 1.899-3.441.067-3.441-.805 0-1.894.802-2.418 1.782m11.466 4.468c.913 8.364 1.417 8.513 1.417.417 0-3.988-.422-6.667-1.05-6.667-.693 0-.818 2.12-.367 6.25m-61.985-3.514C72.163 136.17 73.093 139 75 139c1.296 0 2-.667 2-1.893 0-1.899-2.283-3.491-3.402-2.371m-.052 11.189c-.693 1.123 1.438 6.075 2.615 6.075.461 0 .839-1.575.839-3.5 0-3.378-2.024-4.888-3.454-2.575M41 151.441c0 .793.45 1.719 1 2.059s1-.309 1-1.441S42.55 150 42 150s-1 .648-1 1.441m-19 4.356c0 1.672.661 4.315 1.469 5.872s1.728 4.92 2.045 7.473c.397 3.198 1.552 5.783 3.714 8.314 3.382 3.96 10.416 8.544 13.11 8.544 2.911 0 1.791-1.731-2.136-3.303-4.947-1.979-12.787-9.75-13.481-13.363-.299-1.559-.428-2.953-.285-3.099.143-.145 2.365.912 4.938 2.351 2.573 1.438 8.709 3.899 13.634 5.469s9.936 3.38 11.134 4.021c1.922 1.028 1.986 1.273.549 2.077-1.176.658-1.464 1.732-1.038 3.864.443 2.214.168 3.114-1.098 3.6-.929.357-2.199.139-2.822-.484-1.305-1.305-5.733-1.54-5.733-.305 0 .456 2.138 1.357 4.75 2.003s7.225 1.863 10.25 2.705c13.309 3.704 58.587 6.971 62.777 4.529 1.398-.815 1.44-1.03.223-1.141a65 65 0 0 1-3-.359c-.825-.123-2.588-.3-3.917-.394s-2.123-.464-1.765-.822-.13-1.279-1.084-2.047c-1.549-1.247-1.395-1.331 1.446-.785 2.518.484 3.399.204 4.227-1.343.947-1.77.625-2.017-3.428-2.625-2.46-.369-4.893-.411-5.407-.094-.514.318-1.216.12-1.562-.439-.393-.636 1.358-1.047 4.681-1.099 2.92-.045 12.509-.496 21.309-1.002 40.13-2.308 47.054-3.102 67.5-7.744 14.721-3.342 29.341-10.02 31.64-14.45 1.945-3.749.618-5.663-1.591-2.296-4.801 7.319-20.12 13.517-45.049 18.229-9.78 1.848-37.803 3.999-55.5 4.259-26.986.397-70.26-4.123-76-7.938-.55-.366-3.25-1.268-6-2.006-5.372-1.441-17.98-7.059-20.596-9.177-.878-.71-2.311-2.675-3.184-4.365s-2.293-3.657-3.154-4.372c-1.363-1.131-1.566-.905-1.566 1.742m27.862 4.703c-.547 5.367-.329 6.405 1.039 4.933.477-.513.553-2.958.169-5.433l-.698-4.5zM100 164.941c0 .518.45 1.219 1 1.559s1-.084 1-.941-.45-1.559-1-1.559-1 .423-1 .941m-15.921 4.642c.048 1.165.285 1.402.604.605.289-.722.253-1.585-.079-1.917s-.568.258-.525 1.312m-11.014.996c1.321 1.591 2.935 1.886 2.935.538 0-.486-.926-1.126-2.057-1.422-1.688-.441-1.846-.283-.878.884M34.15 174.95c.43 1.289 1.801 1.521 1.925.325.041-.399-.465-.905-1.125-1.125s-1.02.14-.8.8m194.87.526c-.789.95-.865 1.524-.201 1.524 1.208 0 2.617-1.897 1.924-2.591-.252-.251-1.027.229-1.723 1.067M34.214 195.157c1.073 4.53 2.875 9.386 4.004 10.79s1.81 1.878 1.512 1.053c-.297-.825-1.303-4.875-2.236-9-1.869-8.273-2.625-10.21-4.184-10.73-.623-.208-.257 2.984.904 7.887M117 189c0 .55.45 1 1 1s1-.45 1-1-.45-1-1-1-1 .45-1 1m-75.23 2.313c-.613 1.835.609 6.982 1.747 7.36 1.532.509 1.469-7.465-.064-8.053-.708-.271-1.466.04-1.683.693m8.724 7.354c1.022 4.024 1.548 4.682 3.826 4.782 1.452.063 3.316 1.001 4.141 2.083 1.277 1.674 1.645 1.749 2.463.502.624-.952.6-1.902-.067-2.707-.566-.682-.709-1.757-.318-2.39.522-.845.923-.807 1.51.142.609.986 1.129 1.019 2.19.138 1.149-.954 1.432-.347 1.632 3.503.36 6.965 1.793 8.704 2.621 3.181.373-2.485.527-5.842.343-7.46-.302-2.651-.779-3.006-4.835-3.597-2.475-.361-6.3-1.137-8.5-1.726-6.292-1.683-6.328-1.658-5.006 3.549m22.852 4.838c.36 2.626.654 5.836.654 7.135s.471 2.36 1.046 2.36c1.675 0 .764-13.238-.95-13.805-1.133-.375-1.278.46-.75 4.31m6.012.245c.341 2.063.625 4.838.631 6.167.02 4.453 1.238 1.249 1.66-4.366.351-4.677.155-5.551-1.247-5.551-1.366 0-1.553.671-1.044 3.75m-46.261 3.75c-.067 2.005 1.801 8.041 3.125 10.095.388.603 1.004 3.078 1.369 5.5.403 2.671 1.696 5.525 3.287 7.249 2.859 3.102 13.625 8.988 15.373 8.406 1.028-.343-7.285-5.75-8.84-5.75-1.457 0-6.452-6.451-5.969-7.71.272-.709.059-1.29-.473-1.29-.533 0-.969-.937-.969-2.083s.337-1.926.75-1.733 3.9 1.833 7.75 3.645c3.85 1.811 10.6 4.436 15 5.832s9.078 3.054 10.396 3.685c2.378 1.14 2.37 1.156-1.168 2.151-4.039 1.137-5.892 2.503-3.395 2.503 3.259 0 1.6 1.731-2.583 2.696l-4.25.98 3 1.28c9.842 4.199 30.336 7.945 43.75 7.998 7.197.028 11.75-.341 11.75-.954 0-.55-.645-1-1.433-1-1.467 0-3.194-3.706-2.193-4.707 1.077-1.077-1.397-4.158-3.622-4.508-1.239-.195 6.073-.653 16.248-1.016 19.717-.705 40.365-2.865 51-5.335 3.575-.83 8.87-1.95 11.767-2.488 8.839-1.643 29.039-12.449 27.041-14.465-.381-.385-1.956.192-3.5 1.282-18.013 12.708-53.399 19.029-96.142 17.172-31.025-1.348-55.898-6.478-71.166-14.679-9.066-4.869-12.827-7.883-14.444-11.577-1.04-2.373-1.41-2.672-1.459-1.179m190.349 2c-1.012 2.2-2.014 4.338-2.227 4.75-.212.412.125.75.749.75 1.34 0 4.319-6.669 3.727-8.343-.225-.636-1.237.643-2.249 2.843M60.5 211c.34.55.816 1 1.059 1s.441-.45.441-1-.477-1-1.059-1-.781.45-.441 1"/><path fill="#1976D2" fill-opacity=".375" fill-rule="evenodd" d="M119.75 2.723c1.787.222 4.713.222 6.5 0 1.787-.221.325-.403-3.25-.403s-5.037.182-3.25.403M83.5 3.986c-1.65.428-4.995.831-7.433.896-2.439.065-6.939.976-10 2.024S58.025 9.371 55 10.054c-9.561 2.159-25 12.002-25 15.938 0 .768 1.001.318 2.444-1.096 6.636-6.506 10.53-9.014 18.056-11.631 6.699-2.329 11.466-2.066 14.038.777 2.128 2.352 1.301 3.612-2.779 4.233-5.445.828-13.518 4.119-14.688 5.986-1.715 2.741 1.197 6.293 6.216 7.58 9.782 2.507 14.691 3.118 17.246 2.146 1.711-.65 2.373-.645 1.965.016-.381.617 1.41.982 4.693.958l5.309-.039-3.401-1.476c-1.871-.812-3.177-1.702-2.902-1.977 1.106-1.106 12.659-3.593 18.297-3.939 3.303-.203 11.334-.861 17.845-1.461 10.847-1.001 20.095-.886 36.161.448 3.3.275 12.702.732 20.893 1.018 8.19.285 16.74 1.003 19 1.594 8.501 2.224 11.367 2.205 14.288-.093 1.515-1.191 3.288-3.435 3.94-4.986 1.163-2.767 1.082-2.873-4.217-5.555-2.972-1.503-5.404-3.355-5.404-4.114 0-1.647-.516-1.71-3.019-.371-1.33.712-4.716.51-11.45-.684-7.366-1.305-9.835-1.422-10.747-.51S171.105 14 172.8 14c2.559 0 2.932 1.505.594 2.402-1.16.446-1.427 1.33-.961 3.188.53 2.111.325 2.509-1.144 2.219-1.178-.232-1.789-1.254-1.789-2.992 0-1.452-.311-2.953-.691-3.336s-.167-1.537.475-2.564c1.58-2.53-.279-4.517-2.927-3.129-2.372 1.244-24.303-.498-26.211-2.081-1.043-.867-1.66-.724-2.634.607-1.129 1.544-2.999 1.708-16.642 1.463L105.5 9.5l.003-3.144.004-3.144-9.504-.001c-5.227-.001-10.853.348-12.503.775m55.132.496c.42 1.096 1.256 1.366 2.736.885 5.193-1.686 27.633-.852 27.631 1.026 0 .707 2.982 1.165 8.25 1.267 11.736.227 18.797 1.296 19.428 2.941.579 1.507 3.884 1.919 4.707.587.555-.899-7.646-3.708-13.884-4.755-11.5-1.932-19.455-2.656-33.737-3.071-14.037-.408-15.671-.287-15.131 1.12M79 6.175C68.15 7.974 63 9.337 63.008 10.41c.011 1.58 7.831 5.808 9.189 4.968 1.206-.745 7.547-2.244 11.803-2.79 18.133-2.326 20.877-3.311 17.8-6.388-1.401-1.401-14.418-1.415-22.8-.025m126 5.7c0 .481 1.357 1.146 3.015 1.478s4.919 2.379 7.246 4.549l4.23 3.946-2.495 2.675c-4.785 5.128-15.089 9.022-35.922 13.575-5.143 1.124-5.521 1.069-7.25-1.067-1.709-2.111-1.824-2.129-1.824-.297 0 3.951-2.906 5.074-15.464 5.977-10.587.761-12.158.667-13.64-.815-1.567-1.567-1.744-1.525-2.734.647-.704 1.546-2.162 2.485-4.36 2.807-1.816.267 5.36.267 15.948 0 12.886-.325 19.25-.144 19.25.547 0 1.985-3.923 3.103-10.885 3.103-3.859 0-9.176.463-11.816 1.028l-4.799 1.029.353 5.221c.194 2.872.762 5.725 1.262 6.339 1.846 2.268-2.922 3.853-15.115 5.023-12.039 1.155-31.295.147-33.628-1.76-.697-.57-2.227-.501-4 .181-1.793.69-5.596.854-10.122.437-4.689-.433-7.25-.309-7.25.349 0 1.452 2.353 1.855 12 2.06 11.546.244 15.595 1.415 16.803 4.861l.959 2.732 1.089-2.737 1.09-2.737 11.279.237 11.28.237-.288 2.75c-.158 1.513.149 2.75.684 2.75.534 0 1.114-1.238 1.288-2.75.284-2.469.757-2.782 4.64-3.061 2.378-.171 4.919.182 5.646.786.886.736 1.519 4.953 1.922 12.811.331 6.443.715 13.514.854 15.714l.254 4-5 .548c-4.599.505-4.772.615-2.164 1.38 3.473 1.019 31.138-.878 42.164-2.89 21.676-3.957 47.092-13.262 50.84-18.613 2.44-3.483 3.328-1.56 4.011 8.689.72 10.796.772 10.719-10.374 15.479-14.309 6.111-29.334 10.875-34.349 10.891-4.068.013-4.681-.216-3.709-1.386.639-.771 2.38-1.707 3.866-2.08 4.37-1.097 7.264-4.518 3.822-4.518-1.162 0-2.607-1.985-2.607-3.582 0-.23 1.35-.418 3-.418s3-.352 3-.782 1.912-1.354 4.25-2.054c2.338-.701 6.05-2.166 8.25-3.256l4-1.983-3.5.636c-1.925.349-4.41 1.209-5.521 1.91-1.112.702-3.812 1.521-6 1.821s-6.004 1.029-8.479 1.619c-7.939 1.896-33.266 5.048-40.727 5.069-7.974.022-9.239.929-11.295 8.096-1.218 4.248-.243 4.889 7.472 4.909 8.515.022 5.866 1.744-4.461 2.899-5.687.636-8.682.613-9.105-.071-.423-.685-1.306-.657-2.691.084-1.134.607-5.316 1.103-9.294 1.103s-6.892.338-6.475.75c.838.831 1.384.889 10.259 1.102 5.232.125 6.28.455 6.817 2.148.815 2.569 2.188 2.559 3.007-.023.551-1.735 1.415-1.998 6.073-1.846 2.988.098 5.861.696 6.387 1.329 1.654 1.994 2.159 24.322.802 35.54l-1.269 10.5h-16.845c-9.264 0-17.139-.225-17.5-.5-1.461-1.115-3.154-5.143-3.764-8.956-.356-2.224-1.039-4.044-1.519-4.044-.774 0-1.403 7.328-.93 10.824.099.728-.348 1.961-.994 2.738-1.929 2.325 1.302 2.859 17.552 2.9 39.446.1 54.416-.986 74.1-5.372 21.601-4.814 34.459-10.594 36.978-16.623.976-2.336 1.893-3.223 2.922-2.829 1.745.67 2.05-1.688.429-3.309-1.377-1.377-1.278-45.38.104-46.762.532-.532.967-5.425.967-10.873 0-9.009-.218-10.165-2.411-12.77-2.372-2.82-4.589-10.418-4.589-15.73 0-1.489-.467-4.279-1.037-6.201-.571-1.921-1.217-9.118-1.435-15.993-.581-18.245-.669-18.562-6.75-24.224C214.477 13.909 205 9.163 205 11.875M97.813 14.683c.721.289 1.584.253 1.916-.079s-.258-.568-1.312-.525c-1.165.048-1.402.285-.604.604m84.716 1.27c-.72 1.165.446 4.047 1.637 4.047.524 0 .674-.45.334-1s.084-1 .941-1 1.559.675 1.559 1.5c0 1.048-1.056 1.5-3.5 1.5-1.925 0-3.5.401-3.5.891 0 1.334 6.949 1.884 8.432.667 2.407-1.976 2.509-4.258.238-5.341-3.728-1.779-5.586-2.161-6.141-1.264M71 18.393c0 .216.675.652 1.5.969s1.5.139 1.5-.393c0-.533-.675-.969-1.5-.969s-1.5.177-1.5.393M70.5 21c-1.057 1.71.339 2.754 3.001 2.245 2.368-.453 2.423-.584.774-1.835-2.152-1.633-2.965-1.721-3.775-.41m21.769-.307c.973.254 2.323.237 3-.037s-.119-.481-1.769-.461-2.204.244-1.231.498m127.551 5.493c-.664 4.537-18.059 12.186-34.82 15.31-5.225.974-9.982 1.891-10.571 2.037-.589.147-1.137 2.787-1.218 5.867-.18 6.848 2.108 7.841 3.778 1.64.954-3.542 1.459-4.019 4.789-4.52 5.781-.869 21.509-4.717 23.593-5.772 1.314-.666 1.667-.618 1.186.159-.376.609-2.028 1.802-3.671 2.652-2.293 1.186-2.84 2.009-2.354 3.542.368 1.16-.063 3.061-1.029 4.535-.915 1.396-1.433 2.767-1.153 3.047s2.679.565 5.33.633c3.551.09 6.663-.746 11.82-3.175 9.043-4.26 10.5-5.643 10.5-9.964 0-5.52-2.154-16.601-3.385-17.412-1.828-1.204-2.459-.884-2.795 1.421M35 27.864c0 2.579 17.036 11.132 22 11.045l2.5-.044-2.5-1.013c-10.843-4.394-20-8.936-20-9.922 0-.512-.45-.93-1-.93s-1 .389-1 .864m-5 3.029c0 1.591-.692 6.241-1.539 10.333C26.917 48.695 27.54 54 29.962 54c.556 0 2.825 1.237 5.041 2.75 3.521 2.403 3.967 3.129 3.531 5.75l-.499 3 2.003-2.664c1.822-2.422 2.323-2.575 5.535-1.688 1.942.536 4.745.83 6.229.653 2.161-.259 1.503-.681-3.302-2.123-3.3-.991-7.35-2.516-9-3.39a860 860 0 0 0-5.585-2.93c-4.996-2.59-5.31-5.518-1.824-16.987.613-2.018.597-4.061-.045-5.75-1.301-3.422-2.046-3.323-2.046.272m39.053 9.075c-1.777 1.097.045 1.928 2.374 1.082 1.574-.572 1.649-.807.409-1.283-.834-.32-2.087-.23-2.783.201m33.641 3.671c-1.065 1.065.27 2.312 1.832 1.713.805-.309 1.214-.964.909-1.457-.648-1.049-1.837-1.16-2.741-.256m-7.444 1.05c.963.252 2.537.252 3.5 0 .963-.251.175-.457-1.75-.457s-2.713.206-1.75.457M86.5 48c-.34.55-.141 1 .441 1S88 48.55 88 48s-.198-1-.441-1-.719.45-1.059 1M27 54.706c0 .389-.724 5.226-1.609 10.75-1.146 7.156-2.152 10.521-3.5 11.704-1.04.913-1.891 2.096-1.891 2.628s-.681 1.532-1.512 2.222c-1.068.886-1.21 1.62-.484 2.494.565.682.955 5.254.866 10.161-.093 5.116.327 9.835.984 11.062.63 1.178 1.213 4.309 1.296 6.957.091 2.927.313 3.737.566 2.066.229-1.512.861-2.75 1.403-2.75 2.318 0 8.479 5.281 9.637 8.261 1.182 3.041 1.236 3.07.886.465-.206-1.525-.046-2.976.355-3.224s4.053.651 8.116 1.998 8.255 2.46 9.316 2.474c1.879.025 6.64 1.352 11.452 3.192 2.181.834 2.327 1.301 1.74 5.582-.399 2.915-.287 4.31.298 3.712.516-.528 1.083-2.535 1.26-4.46l.321-3.5 5 .086c2.75.047 8.559.456 12.908.91 5.921.617 7.728.533 7.191-.336-.394-.638-2.828-1.169-5.408-1.18-4.392-.019-16.241-1.859-25.941-4.029a890 890 0 0 0-8.5-1.849c-11.275-2.383-24.455-8.315-28.49-12.822l-3.239-3.62.093-11.295c.084-10.099.291-11.359 1.959-11.888 1.766-.561 3.909-5.849 3.921-9.678.003-.936.681-4.293 1.506-7.46C29.251 56.618 29.391 54 28 54c-.55 0-1 .318-1 .706m168 2.305c0 1.171 3.665 1.34 4.369.201.268-.433-.606-.878-1.941-.989s-2.428.244-2.428.788M55 63c0 .55 1.462.968 3.25.93 2.724-.059 2.926-.21 1.25-.93-2.763-1.187-4.5-1.187-4.5 0m9.5 2.125c1.65.629 3.505 1.541 4.123 2.027 1.269.997 4.377.103 4.377-1.259 0-.491-.787-.898-1.75-.904s-3.55-.235-5.75-.509c-3.908-.487-3.931-.472-1 .645m110.66 5.115c-.638.638-1.167 2.083-1.175 3.21-.009 1.128-.424 2.696-.924 3.485-.688 1.087-1.124.602-1.798-2-1.062-4.1-3.631-4.575-4.073-.754-.303 2.621-.456 2.678-6.741 2.5-5.945-.167-6.431-.351-6.44-2.431-.008-1.949-.533-2.25-3.93-2.25-3.466 0-3.989.319-4.514 2.75-.326 1.513-.12 6.125.458 10.25s1.321 10.313 1.651 13.75l.6 6.25h3.798c2.089 0 5.065-.52 6.613-1.156s3.49-1.198 4.315-1.25 1.651-1.219 1.835-2.594.765-2.946 1.291-3.492c1.295-1.341 2.997 1.449 2.284 3.742-.417 1.338.031 1.75 1.9 1.75 1.345 0 3.005-.675 3.69-1.5s2.31-1.5 3.612-1.5h2.367l-.449-11.024c-.661-16.248-1.689-20.417-4.37-17.736m7.504-.49c-.25.412.375 3.417 1.388 6.678 1.013 3.26 2.149 9.448 2.524 13.75.488 5.593 1.07 7.822 2.042 7.822.764 0 1.329-.986 1.29-2.25-.039-1.237.013-4.859.115-8.049.248-7.765 2.287-7.006 3.076 1.145.33 3.402.862 6.449 1.184 6.77 1.108 1.108 2.528-.623 2.04-2.487-.269-1.029-.003-3.616.591-5.749.851-3.061.795-4.091-.266-4.88-.741-.55-1.669-3.155-2.064-5.788-.64-4.27-1.036-4.852-3.651-5.375-1.613-.323-2.933-.981-2.933-1.462 0-1.066-4.7-1.176-5.336-.125M197 73.667c0 5.553.481 5.407 1.373-.417.402-2.629.265-4.25-.361-4.25-.557 0-1.012 2.1-1.012 4.667m-42-.621c0 .608 1.886.949 4.5.813 2.475-.128 4.5-.599 4.5-1.046S161.975 72 159.5 72s-4.5.471-4.5 1.046m47 11.395c0 3.064.57 3.312 1.289.56.288-1.099.115-2.251-.383-2.559s-.906.592-.906 1.999m25.833 7.309c-.183.412-2.076 1.557-4.207 2.543-5.412 2.505-3.86 3.228 2.262 1.053 5.201-1.847 7.595-4.346 4.164-4.346-1.037 0-2.035.338-2.219.75m-52.02 4.933c.721.289 1.584.253 1.916-.079s-.258-.568-1.312-.525c-1.165.048-1.402.285-.604.604m-72.146 3.425c-1.553 5.806-1.428 5.892 8.533 5.892 7.156 0 8.933-.267 8-1.2-.66-.66-1.2-2.01-1.2-3 0-2.593-1.801-2.221-2.18.45-.283 1.991-.896 2.25-5.32 2.25-4.802 0-5.043-.134-6.096-3.392-1.045-3.231-1.127-3.279-1.737-1M231.158 100c0 1.375.227 1.938.504 1.25.278-.687.278-1.812 0-2.5-.277-.687-.504-.125-.504 1.25M227 103.5c0 .825.402 1.5.893 1.5s1.152-.675 1.469-1.5c.35-.914.001-1.5-.893-1.5-.808 0-1.469.675-1.469 1.5M125 106c-1.118.723-.56.973 2.191.985 2.03.008 3.969-.435 4.309-.985.797-1.29-4.504-1.29-6.5 0m6 6.378c0 .207.615.888 1.367 1.512 1.04.863 1.668.773 2.623-.378 1.066-1.284.86-1.512-1.368-1.512-1.442 0-2.622.17-2.622.378M206 122c0 .55.45 1 1 1s1-.45 1-1-.45-1-1-1-1 .45-1 1m-14.8 4.2c-2.229 2.229-.988 15.612 2.381 25.693.96 2.87 1.705-.091 2.043-8.114.191-4.553.569-10.642.839-13.529.462-4.94.356-5.25-1.786-5.25-1.252 0-2.817.54-3.477 1.2m8.3.8c.34.55.816 1 1.059 1s.441-.45.441-1-.477-1-1.059-1-.781.45-.441 1m-97.13 3.25c.331 1.238.609 3.787.616 5.667.017 4.208.823 3.652 1.425-.983.245-1.889.751-4.221 1.124-5.184.522-1.345.165-1.75-1.545-1.75-1.818 0-2.113.41-1.62 2.25m71.488-1.774c-.3.3-4.735.577-9.855.617-11.491.09-14.442 1.007-13.377 4.158.417 1.237.673 9.813.567 19.058s.185 16.575.648 16.289c.462-.286 1.662-3.553 2.666-7.261 1.403-5.183 2.001-6.291 2.589-4.79.42 1.074.795 3.191.834 4.703.195 7.656 4.207-1.989 5.515-13.259.673-5.802 1.055-6.71 3.69-8.768 1.402-1.095 1.933-.81 3.733 2 1.154 1.802 2.106 2.688 2.115 1.968.033-2.567 1.802-.15 2.461 3.362.848 4.519 3.111 4.014 2.906-.648-.652-14.811-1.013-17.409-2.452-17.686-.823-.159-1.741-.043-2.04.257m6.698.434c-.679 1.098.355 4.09 1.412 4.09.415 0 .554 1.049.309 2.331-.641 3.352 1.543 10.669 3.184 10.669 1.104 0 1.282-1.572.88-7.75-.278-4.262-.679-8.312-.891-9-.446-1.441-4.059-1.692-4.894-.34M167.5 132c-.666 1.078.181 3.01 1.309 2.985.38-.009 1.366-.459 2.191-1 1.333-.876 1.333-1.094 0-1.97-1.915-1.257-2.73-1.261-3.5-.015m32.251 7c-.998 7.482-.939 15 .118 15 1.331 0 1.84-5.742 1.196-13.5l-.58-7zm-33.938-2.317c.721.289 1.584.253 1.916-.079s-.258-.568-1.312-.525c-1.165.048-1.402.285-.604.604m-143.69 6.008c-.067 3.405-.573 6.469-1.123 6.809-1.448.895-1.232 6.446.652 16.746 1.296 7.081 2.268 9.732 4.5 12.275 1.567 1.784 2.848 3.971 2.848 4.861 0 .926.817 1.618 1.911 1.618 2.822 0 6.797 5.318 7.634 10.215.594 3.472.884 3.905 1.524 2.285.435-1.1.822-3.238.861-4.75.052-2.031.577-2.75 2.011-2.75 1.068 0 2.166.364 2.441.809s4.914 1.843 10.309 3.105c15.142 3.544 14.02 2.572 14.746 12.771.345 4.848.866 10.731 1.158 13.072.396 3.182.159 4.4-.94 4.822-3.169 1.216-23.496-7.178-26.046-10.756-.657-.923-2.405-2.228-3.883-2.902s-2.952-2.056-3.274-3.073S36.434 206 35.907 206s-.312 1.238.478 2.75c9.786 18.736 74.429 30.822 129.115 24.141 29.534-3.609 54.081-14.03 57.508-24.415.631-1.912 1.576-3.476 2.101-3.476 1.988 0 1.976 3.02-.03 7.554-1.143 2.585-2.086 6.331-2.094 8.323-.008 1.993-.57 4.72-1.25 6.06-2.193 4.328-13.164 10.701-24.976 14.508C185.06 245.217 183 245.599 183 244c0-.55.934-1 2.075-1 1.69 0 2.02-.535 1.774-2.875-.166-1.581.315-3.617 1.067-4.524 1.991-2.399.937-2.801-4.276-1.632-9.744 2.183-42.794 6.031-51.806 6.031-3.047 0-4.714.385-4.334 1 .34.55 1.829 1.007 3.309 1.015 3.556.021 5.298 1.193 4.263 2.868-.526.851-1.679 1.09-3.197.664-2.035-.571-1.88-.244 1.08 2.285l3.454 2.951-9.765.732c-9.38.703-27.208.153-36.644-1.13-2.475-.337-4.196-.294-3.824.094 2.837 2.964 52.52 4.86 67.209 2.566 3.363-.526 10.39-1.448 15.615-2.049 20.583-2.369 40.284-9.407 50.073-17.887 3.889-3.37 4.762-4.831 5.845-9.785.7-3.203 1.68-6.858 2.177-8.121 1.259-3.197 1.133-10.944-.191-11.762-1.215-.751-.987-2.447 1.825-13.544 1.059-4.182 2.838-8.907 3.952-10.5 1.114-1.594 2.356-4.697 2.76-6.897 1.98-10.796 2.319-13.026 2.025-13.343-.462-.497-3.525 5.636-3.278 6.563.115.429-.064 1.68-.397 2.78s-.874 3.212-1.203 4.694c-.729 3.284-5.032 8.048-9.088 10.061-1.65.819-6.375 2.472-10.5 3.673s-9.018 2.658-10.873 3.237c-2.639.824-3.561.758-4.234-.306-1.268-2.003-.475-3.369 1.908-3.285 1.155.041 1.87-.297 1.59-.75S199.585 185 198 185s-3.148-.431-3.474-.957c-.652-1.055 4.466-4.043 6.924-4.043.853 0 1.55-.509 1.55-1.131 0-.769-1.199-.898-3.75-.405-10.551 2.043-15.3 2.685-33.25 4.499-10.725 1.083-23.55 2.029-28.5 2.103-9.682.143-8.629 1.531 1.5 1.976 5.34.235 5.384.26 1.5.853-3.044.465-3.562.79-2.168 1.358 1.007.411 3.46.747 5.45.747 4.884 0 2.918 1.688-2.532 2.174-3.155.281-4.25.018-4.25-1.02 0-1.13-.288-1.16-1.5-.154-2.264 1.879-1.811 2.992 1.25 3.07 1.512.039 3.65.437 4.75.886 4.084 1.664-3.841 2.439-25.5 2.492-30.746.075-53.19-2.93-72.5-9.706-10.017-3.515-19.5-12.816-19.5-19.125 0-1.456-.744-5.324-1.654-8.595-1.355-4.874-1.421-6.227-.368-7.496 1.153-1.389 1.423-1.367 2.622.213 1.571 2.07 1.849 1.008.394-1.503-.554-.955-1.398-4.661-1.877-8.236l-.87-6.5zm160.956 6.892c.048 1.165.285 1.402.604.605.289-.722.253-1.585-.079-1.917s-.568.258-.525 1.312m-148.72 11.918c-.904 1.929-.847 2.679.274 3.61 1.95 1.618 2.328.921 1.54-2.835l-.673-3.211zm31.761 11.275c-1.31 2.448-.971 2.73 4.38 3.646 2.2.377 4.844.934 5.875 1.238 1.143.338 1.627.152 1.239-.476-.35-.567-2.094-1.334-3.875-1.706s-3.971-1.605-4.866-2.74l-1.628-2.065zm49.463.09c-.431.697-.513 1.537-.183 1.867.895.895 1.871-.421 1.387-1.871-.338-1.016-.574-1.016-1.204.004m-27.916 3.801c-1.262 1.261-.663 2.333 1.302 2.333 1.339 0 1.784-.48 1.393-1.5-.616-1.604-1.615-1.913-2.695-.833m10.146 2.016c.721.289 1.584.253 1.916-.079s-.258-.568-1.312-.525c-1.165.048-1.402.285-.604.604m-67.019 9.856c-.844.844.127 6.585 1.338 7.911.511.56.827-.057.768-1.5-.148-3.656-1.314-7.203-2.106-6.411m.77 14.268c-1.643 4.948-1.627 5.174.881 12.441 1.405 4.071 2.555 8.087 2.555 8.924 0 2.303 2.669 7.174 5.224 9.531 5.822 5.371 33.857 16.64 33.749 13.566-.015-.423-3.851-1.998-8.524-3.5s-11.005-3.959-14.071-5.46C44.853 235.114 37 228.52 37 226.236c0-1.586-.263-2.56-3.623-13.444-1.657-5.365-1.661-5.821-.07-7.579 1.865-2.06 2.118-3.993.797-6.079-.615-.971-1.351.092-2.54 3.673m41.138-4.175c-2.028 2.027.175 21.882 2.898 26.118 1.644 2.557 5.176 2.996 6.038.75.806-2.099 2.033-1.868 2.652.5.287 1.1 1.187 2 2 2s1.712-.9 2-2c.704-2.694 2.494-2.539 2.89.25.243 1.706 1.045 2.298 3.32 2.448 1.65.11 4.851.429 7.114.711l4.115.512-.115-13.955c-.069-8.476-.507-13.999-1.114-14.068-.55-.061-3.7-.225-7-.364-5.22-.219-12.599-1.277-21.548-3.088-1.402-.284-2.864-.2-3.25.186m36.146 3.458c-1.137.708-1.033 6.236.35 18.573.892 7.955 1.299 9.234 3.088 9.702 1.134.296 2.433.309 2.888.028 1.173-.725 1.028-4.393-.174-4.393-.55 0-1.007.563-1.015 1.25q-.015 1.253-.995-.25c-.846-1.296-.466-17.349.488-20.561.179-.604 1.894-.877 3.98-.634 2.607.305 3.513.828 3.136 1.812-.31.805.107 1.383.996 1.383.841 0 1.242-.463.893-1.028-.35-.565.411-1.882 1.691-2.926 1.864-1.52 2.028-2.002.826-2.425-2.241-.789-15.061-1.211-16.152-.531m62.965-.407c.721.289 1.584.253 1.916-.079s-.258-.568-1.312-.525c-1.165.048-1.402.285-.604.604m-43.371 1.41c-.338.547-.11 1.603.507 2.346s1.052 1.735.968 2.206c-.447 2.487.196 8.355.915 8.355 1.159 0 3.155-6.871 2.495-8.59-.64-1.667.814-1.869 2.355-.328.748.748 1.658.767 2.95.061 1.027-.562 3.106-1.283 4.618-1.602 3.998-.842 3.368-2.521-1-2.665a290 290 0 0 1-8.472-.45c-2.596-.18-4.998.12-5.336.667m21.59 3.657c.03 2.634.094 2.668 1.5.809 1.871-2.474 1.861-3.559-.032-3.559-.977 0-1.489.958-1.468 2.75m64.569 16.09c-5.45 3.962-4.784 5.597.802 1.968 3.079-2 5.237-4.623 4.371-5.312-.151-.12-2.478 1.385-5.173 3.344m-79.788 7.843c.721.289 1.584.253 1.916-.079s-.258-.568-1.312-.525c-1.165.048-1.402.285-.604.604M76.5 249c1.1.473 3.575.859 5.5.859 2.836 0 3.121-.163 1.5-.859-1.1-.473-3.575-.859-5.5-.859-2.836 0-3.121.163-1.5.859"/></svg>